<svg width="1152" height="600" viewBox="0 0 1152 600" fill="none" xmlns="http://www.w3.org/2000/svg">
<g filter="url(#filter0_d)">
<path d="M1152 0H0L2.14291e-05 374.5C2.22349e-05 388.583 11.4168 400 25.5 400C39.5833 400 51 388.583 51 374.5V365C51 351.193 62.1929 340 76 340C89.8072 340 101 351.193 101 365V425C101 438.807 112.193 450 126 450C139.807 450 151 438.807 151 425V365C151 351.193 162.193 340 176 340C189.807 340 201 351.193 201 365L201 475C201 488.807 212.193 500 226 500C239.807 500 251 488.807 251 475L251 365C251 351.193 262.193 340 276 340C289.807 340 301 351.193 301 365V565C301 578.807 312.193 590 326 590C339.807 590 351 578.807 351 565V365C351 351.193 362.193 340 376 340C389.807 340 401 351.193 401 365V565C401 578.807 412.193 590 426 590C439.807 590 451 578.807 451 565V365C451 351.193 462.193 340 476 340C489.807 340 501 351.193 501 365V565C501 578.807 512.193 590 526 590C539.807 590 551 578.807 551 565V365C551 351.193 562.193 340 576 340C589.807 340 601 351.193 601 365V565C601 578.807 612.193 590 626 590C639.807 590 651 578.807 651 565V365C651 351.193 662.193 340 676 340C689.807 340 701 351.193 701 365V565C701 578.807 712.193 590 726 590C739.807 590 751 578.807 751 565V365C751 351.193 762.193 340 776 340C789.807 340 801 351.193 801 365V565C801 578.807 812.193 590 826 590C839.807 590 851 578.807 851 565V365C851 351.193 862.193 340 876 340C889.807 340 901 351.193 901 365V475C901 488.807 912.193 500 926 500C939.807 500 951 488.807 951 475V365C951 351.193 962.193 340 976 340C989.807 340 1001 351.193 1001 365V425C1001 438.807 1012.19 450 1026 450C1039.81 450 1051 438.807 1051 425V365C1051 351.193 1062.19 340 1076 340C1089.81 340 1101 351.193 1101 365V374.5C1101 388.583 1112.42 400 1126.5 400C1140.58 400 1152 388.583 1152 374.5V0Z" fill="url(#paint0_linear)"/>
</g>
<defs>
<filter id="filter0_d" x="0" y="0" width="1162" height="600" filterUnits="userSpaceOnUse" color-interpolation-filters="sRGB">
<feFlood flood-opacity="0" result="BackgroundImageFix"/>
<feColorMatrix in="SourceAlpha" type="matrix" values="0 0 0 0 0 0 0 0 0 0 0 0 0 0 0 0 0 0 127 0"/>
<feOffset dx="10" dy="10"/>
<feColorMatrix type="matrix" values="0 0 0 0 0.286753 0 0 0 0 0.829167 0 0 0 0 0.666443 0 0 0 1 0"/>
<feBlend mode="normal" in2="BackgroundImageFix" result="effect1_dropShadow"/>
<feBlend mode="normal" in="SourceGraphic" in2="effect1_dropShadow" result="shape"/>
</filter>
<linearGradient id="paint0_linear" x1="576" y1="0" x2="576" y2="590" gradientUnits="userSpaceOnUse">
<stop stop-color="#49D3AA"/>
<stop offset="1" stop-color="#4DE7D4"/>
</linearGradient>
</defs>
</svg>
